Coordinates
version=1
nRows=15
nColumns=46
inDegrees=yes

Units are S.I. units (second, meters, Newtons, ...)
Angles are in degrees.

endheader
time	pelvis_tilt	pelvis_list	pelvis_rotation	pelvis_tx	pelvis_ty	pelvis_tz	bb_angle	bb_tx	bb_ty	bb_tz	hip_flexion_r	hip_adduction_r	hip_rotation_r	knee_angle_r	knee_angle_r_beta	ankle_angle_r	subtalar_angle_r	mtp_angle_r	crank_angle_r	hip_flexion_l	hip_adduction_l	hip_rotation_l	knee_angle_l	knee_angle_l_beta	ankle_angle_l	subtalar_angle_l	mtp_angle_l	crank_angle_l	lumbar_extension	lumbar_bending	lumbar_rotation	arm_flex_r	arm_add_r	arm_rot_r	elbow_flex_r	pro_sup_r	wrist_flex_r	wrist_dev_r	arm_flex_l	arm_add_l	arm_rot_l	elbow_flex_l	pro_sup_l	wrist_flex_l	wrist_dev_l
      0.00500000	    -16.90198325	     -5.63881333	     -3.55703267	      0.12286373	      1.13680520	     -0.23410320	      0.00000000	      0.50000000	      0.00000000	      0.25000000	     91.93940183	     -8.79394171	     -5.84485571	    104.36645401	      1.82153825	     24.87710550	      8.18359296	      0.00000000	      0.00000000	     46.42410137	    -15.60428338	     -7.16580688	     52.29710854	      0.91275673	     14.57238113	      7.96581197	      0.00000000	      0.00000000	    -48.67171846	      4.78659776	      9.05600721	     89.25625338	     -9.15647240	     34.63003116	     31.78903725	     26.13185792	      0.00000000	      0.00000000	     89.20156841	     -2.50424477	     35.60570539	     23.22205087	     24.79822687	      0.00000000	      0.00000000
      0.01000000	    -17.05525759	     -5.64437614	     -3.52831665	      0.12278171	      1.13649301	     -0.23420867	      0.00000000	      0.50000000	      0.00000000	      0.25000000	     92.11991127	     -8.82673186	     -5.87563771	    104.36140965	      1.82145021	     24.70616659	      7.74837454	      0.00000000	      0.00000000	     46.63315806	    -15.52958520	     -7.04767131	     52.32088016	      0.91317163	     14.42264914	      7.47944814	      0.00000000	      0.00000000	    -48.38541751	      4.85402017	      8.98850715	     89.30894343	     -9.25991089	     35.93837898	     30.60365591	     29.09801019	      0.00000000	      0.00000000	     89.28021069	     -2.29151783	     36.06333548	     21.60818725	     27.28541977	      0.00000000	      0.00000000
      0.01500000	    -17.09193772	     -5.62066591	     -3.52725088	      0.12281496	      1.13643876	     -0.23418423	      0.00000000	      0.50000000	      0.00000000	      0.25000000	     92.16518815	     -8.83441567	     -5.85245605	    104.36903949	      1.82158338	     24.71029671	      7.77265119	      0.00000000	      0.00000000	     46.65922323	    -15.50435897	     -7.04732080	     52.30535623	      0.91290068	     14.41879311	      7.49044263	      0.00000000	      0.00000000	    -48.37413497	      4.94356166	      8.85902857	     89.32544781	     -9.02696629	     35.77727798	     30.31129114	     30.91489704	      0.00000000	      0.00000000	     89.27032030	     -2.63175095	     36.27209932	     21.39432465	     29.04579573	      0.00000000	      0.00000000
      0.02000000	    -17.28560360	     -5.82684977	     -3.62926779	      0.12249687	      1.13569161	     -0.23349096	      0.00000000	      0.50000000	      0.00000000	      0.25000000	     92.38640994	     -8.60904443	     -6.06161299	    104.37861323	      1.82175047	     24.62744914	      7.56506054	      0.00000000	      0.00000000	     46.95328862	    -15.63710949	     -6.74114619	     52.35905329	      0.91383787	     14.43460277	      7.51815823	      0.00000000	      0.00000000	    -48.13443166	      4.99912492	      9.08434900	     89.30975807	     -8.82686932	     35.13477740	     30.02166866	     31.17859983	      0.00000000	      0.00000000	     89.28017375	     -2.36502740	     35.57165470	     21.13171674	     29.28930119	      0.00000000	      0.00000000
      0.02500000	    -17.23232997	     -5.70696780	     -3.64467795	      0.12242362	      1.13605797	     -0.23376220	      0.00000000	      0.50000000	      0.00000000	      0.25000000	     92.35285919	     -8.60483373	     -5.92326110	    104.36420363	      1.82149897	     24.59856145	      7.50567610	      0.00000000	      0.00000000	     46.88178413	    -15.70659623	     -7.01478719	     52.41355408	      0.91478909	     14.49306356	      7.49683815	      0.00000000	      0.00000000	    -48.19282122	      4.86211886	      9.02205397	     89.29180687	     -8.66025750	     34.49339791	     29.94758962	     31.64928090	      0.00000000	      0.00000000	     89.26784926	     -2.35999629	     34.99956266	     21.21434143	     29.75396188	      0.00000000	      0.00000000
      0.03000000	    -17.19949738	     -5.74227324	     -3.62469270	      0.12241155	      1.13613098	     -0.23381497	      0.00000000	      0.50000000	      0.00000000	      0.25000000	     92.29669026	     -8.61992482	     -5.94820764	    104.35857870	      1.82140080	     24.63307585	      7.59780251	      0.00000000	      0.00000000	     46.85514369	    -15.72678033	     -6.96150874	     52.43885749	      0.91523072	     14.57245397	      7.50513011	      0.00000000	      0.00000000	    -48.24474810	      4.90127036	      9.05845801	     89.28698375	     -8.67832338	     34.35652146	     29.96113532	     31.83436324	      0.00000000	      0.00000000	     89.25738344	     -2.39626832	     34.90417457	     21.31121297	     29.93419619	      0.00000000	      0.00000000
      0.03500000	    -17.19667404	     -5.74630806	     -3.61849952	      0.12244551	      1.13616768	     -0.23386814	      0.00000000	      0.50000000	      0.00000000	      0.25000000	     92.28070123	     -8.62912481	     -5.95535893	    104.35859844	      1.82140115	     24.67494872	      7.63120012	      0.00000000	      0.00000000	     46.84460798	    -15.73405857	     -6.98536574	     52.42706694	      0.91502494	     14.59228683	      7.54643279	      0.00000000	      0.00000000	    -48.25033680	      4.90937919	      9.07156488	     89.27167062	     -8.64157611	     34.10306125	     30.05887843	     31.81843007	      0.00000000	      0.00000000	     89.26233674	     -2.35748493	     34.83482928	     21.32889732	     29.90730071	      0.00000000	      0.00000000
      0.04000000	    -17.23644531	     -5.74890981	     -3.60547904	      0.12234580	      1.13607478	     -0.23390022	      0.00000000	      0.50000000	      0.00000000	      0.25000000	     92.33642675	     -8.63026965	     -5.95777524	    104.34966780	      1.82124528	     24.62566667	      7.49632030	      0.00000000	      0.00000000	     46.90996927	    -15.69908125	     -6.91883635	     52.44006661	      0.91525182	     14.53855065	      7.37666240	      0.00000000	      0.00000000	    -48.19309459	      4.93134177	      9.03211453	     89.28557439	     -8.57293590	     34.11942275	     29.81857067	     31.96862354	      0.00000000	      0.00000000	     89.26943446	     -2.32171850	     34.64322737	     21.18883270	     29.96831763	      0.00000000	      0.00000000
      0.04500000	    -17.08442287	     -5.83194002	     -3.59817072	      0.12245722	      1.13640010	     -0.23394528	      0.00000000	      0.50000000	      0.00000000	      0.25000000	     92.10515021	     -8.65890440	     -6.03105288	    104.34499891	      1.82116379	     24.86593305	      8.02718788	      0.00000000	      0.00000000	     46.73940670	    -15.84105236	     -7.00464788	     52.44092194	      0.91526675	     14.71489899	      7.98000418	      0.00000000	      0.00000000	    -48.50178702	      4.96722653	      9.20187725	     89.24265787	     -8.72818878	     32.95479209	     30.62382642	     32.59600874	      0.00000000	      0.00000000	     89.16039667	     -2.38877015	     33.34391265	     22.35968264	     30.67371455	      0.00000000	      0.00000000
      0.05000000	    -17.19974747	     -5.72558334	     -3.60873120	      0.12234860	      1.13616069	     -0.23392412	      0.00000000	      0.50000000	      0.00000000	      0.25000000	     92.30162894	     -8.63804656	     -5.93823838	    104.35587952	      1.82135369	     24.62316940	      7.50688896	      0.00000000	      0.00000000	     46.84706976	    -15.68271124	     -6.97139311	     52.40562522	      0.91465071	     14.51563549	      7.36075117	      0.00000000	      0.00000000	    -48.22591631	      4.88947274	      9.04852695	     89.28950309	     -8.88221261	     35.44223021	     30.72362108	     27.31242951	      0.00000000	      0.00000000	     89.27558845	     -2.75385173	     37.60044328	     22.22318563	     24.16390303	      0.00000000	      0.00000000
      0.05500000	    -17.19109034	     -5.72866204	     -3.61397904	      0.12233789	      1.13617239	     -0.23390583	      0.00000000	      0.50000000	      0.00000000	      0.25000000	     92.29510247	     -8.63217226	     -5.94019121	    104.35872552	      1.82140336	     24.61460714	      7.50652071	      0.00000000	      0.00000000	     46.84091562	    -15.69785170	     -6.98596306	     52.41217693	      0.91476506	     14.50972605	      7.36787251	      0.00000000	      0.00000000	    -48.24055586	      4.89962911	      9.03564425	     89.28933280	     -8.69391283	     34.90821661	     30.50206285	     28.18305141	      0.00000000	      0.00000000	     89.27110225	     -2.61358129	     36.66565672	     22.00960436	     25.17371567	      0.00000000	      0.00000000
      0.06000000	    -17.19926045	     -5.73070273	     -3.59561942	      0.12233313	      1.13618045	     -0.23397640	      0.00000000	      0.50000000	      0.00000000	      0.25000000	     92.29888226	     -8.65668709	     -5.93996997	    104.35138907	      1.82127532	     24.61659438	      7.52344270	      0.00000000	      0.00000000	     46.85049072	    -15.67284028	     -6.95781579	     52.40626103	      0.91466180	     14.50630110	      7.36319642	      0.00000000	      0.00000000	    -48.23324560	      4.91345873	      9.01460663	     89.28564630	     -8.59943101	     34.54882196	     30.36215096	     28.72861518	      0.00000000	      0.00000000	     89.26565517	     -2.45936340	     35.91086312	     21.87628995	     25.78647800	      0.00000000	      0.00000000
      0.06500000	    -17.21460473	     -5.75754058	     -3.59874770	      0.12236599	      1.13617673	     -0.23400013	      0.00000000	      0.50000000	      0.00000000	      0.25000000	     92.29687315	     -8.63274300	     -5.95235997	    104.33571413	      1.82100174	     24.57403217	      7.50773739	      0.00000000	      0.00000000	     46.86112313	    -15.69269259	     -6.93260161	     52.39919935	      0.91453855	     14.58451511	      7.36606217	      0.00000000	      0.00000000	    -48.22172555	      4.92429201	      9.08289015	     89.29550844	     -9.02841928	     35.36985442	     30.06152609	     31.67574488	      0.00000000	      0.00000000	     89.26982793	     -2.50400951	     35.85536226	     21.33913893	     29.00256577	      0.00000000	      0.00000000
      0.07000000	    -17.09246327	     -5.75778817	     -3.62089105	      0.12234852	      1.13637839	     -0.23392163	      0.00000000	      0.50000000	      0.00000000	      0.25000000	     92.17134031	     -8.61704249	     -5.94698735	    104.35282928	      1.82130045	     24.71343028	      7.72538966	      0.00000000	      0.00000000	     46.72071473	    -15.74337690	     -7.00456834	     52.40442241	      0.91462971	     14.58744098	      7.60373777	      0.00000000	      0.00000000	    -48.43613532	      4.88162811	      9.13580208	     89.26410018	     -8.99898718	     34.39694382	     30.56475453	     32.17127765	      0.00000000	      0.00000000	     89.22972637	     -2.54855210	     34.99206291	     22.01524283	     29.61800000	      0.00000000	      0.00000000
      0.07500000	    -17.20237806	     -5.73168730	     -3.62059214	      0.12230707	      1.13618543	     -0.23390939	      0.00000000	      0.50000000	      0.00000000	      0.25000000	     92.30410008	     -8.62263973	     -5.93972057	    104.33841514	      1.82104888	     24.61052426	      7.51064489	      0.00000000	      0.00000000	     46.85155736	    -15.70703333	     -6.99061664	     52.41657682	      0.91484185	     14.51814703	      7.39651236	      0.00000000	      0.00000000	    -48.22317856	      4.89305345	      9.04619489	     89.30119532	     -8.96171685	     35.47646038	     30.11115600	     31.30089635	      0.00000000	      0.00000000	     89.28025057	     -2.80835510	     37.28207246	     21.45122790	     28.67255637	      0.00000000	      0.00000000
